<mxfile host="app.diagrams.net" agent="Mozilla/5.0 (Windows NT 10.0; Win64; x64) AppleWebKit/537.36 (KHTML, like Gecko) Chrome/133.0.0.0 Safari/537.36" version="26.0.14">
  <diagram name="Page-1" id="dw9cy2hVtUxoz5KOO9y6">
    <mxGraphModel dx="1728" dy="915" grid="1" gridSize="10" guides="1" tooltips="1" connect="1" arrows="1" fold="1" page="1" pageScale="1" pageWidth="827" pageHeight="1169" math="0" shadow="0">
      <root>
        <mxCell id="0" />
        <mxCell id="1" parent="0" />
        <mxCell id="l-ooRK0CQchim35NLO_1-1" value="" style="whiteSpace=wrap;html=1;strokeColor=none;strokeWidth=1;fillColor=#f5f5f5;fontSize=14;" parent="1" vertex="1">
          <mxGeometry x="184" y="460" width="806" height="251" as="geometry" />
        </mxCell>
        <mxCell id="l-ooRK0CQchim35NLO_1-2" value="" style="whiteSpace=wrap;html=1;strokeColor=none;strokeWidth=1;fillColor=#f5f5f5;fontSize=14;" parent="1" vertex="1">
          <mxGeometry x="184" y="167.5" width="806" height="140" as="geometry" />
        </mxCell>
        <mxCell id="l-ooRK0CQchim35NLO_1-3" value="&lt;b&gt;&lt;font style=&quot;font-size: 18px;&quot;&gt;选取STEP文件&lt;/font&gt;&lt;/b&gt;" style="html=1;whiteSpace=wrap;fillColor=#ffff99;shape=mxgraph.archimate3.application;appType=func;archiType=rounded;fontSize=14;" parent="1" vertex="1">
          <mxGeometry x="534" y="200" width="150" height="75" as="geometry" />
        </mxCell>
        <mxCell id="l-ooRK0CQchim35NLO_1-4" value="Technology" style="text;html=1;strokeColor=none;fillColor=none;align=center;verticalAlign=middle;whiteSpace=wrap;fontSize=14;" parent="1" vertex="1">
          <mxGeometry x="1269" y="751" width="240" height="20" as="geometry" />
        </mxCell>
        <mxCell id="l-ooRK0CQchim35NLO_1-5" value="Application" style="text;html=1;strokeColor=none;fillColor=none;align=center;verticalAlign=middle;whiteSpace=wrap;fontSize=14;" parent="1" vertex="1">
          <mxGeometry x="1269" y="541" width="240" height="20" as="geometry" />
        </mxCell>
        <mxCell id="l-ooRK0CQchim35NLO_1-6" value="Business" style="text;html=1;strokeColor=none;fillColor=none;align=center;verticalAlign=middle;whiteSpace=wrap;fontSize=14;" parent="1" vertex="1">
          <mxGeometry x="1259" y="389" width="240" height="20" as="geometry" />
        </mxCell>
        <mxCell id="l-ooRK0CQchim35NLO_1-7" style="edgeStyle=elbowEdgeStyle;rounded=1;elbow=vertical;html=1;dashed=1;startSize=10;endArrow=block;endFill=0;endSize=10;jettySize=auto;orthogonalLoop=1;strokeColor=#808080;fontSize=14;" parent="1" source="l-ooRK0CQchim35NLO_1-8" target="l-ooRK0CQchim35NLO_1-3" edge="1">
          <mxGeometry relative="1" as="geometry" />
        </mxCell>
        <mxCell id="l-ooRK0CQchim35NLO_1-8" value="" style="html=1;whiteSpace=wrap;fillColor=#ffff99;shape=mxgraph.archimate3.actor;fontSize=14;" parent="1" vertex="1">
          <mxGeometry x="584" y="60" width="50" height="95" as="geometry" />
        </mxCell>
        <mxCell id="l-ooRK0CQchim35NLO_1-9" value="&lt;span style=&quot;font-size: 23px;&quot;&gt;&lt;b&gt;用户层&lt;/b&gt;&lt;/span&gt;" style="text;html=1;align=center;verticalAlign=middle;whiteSpace=wrap;rounded=0;" parent="1" vertex="1">
          <mxGeometry x="200" y="222.5" width="80" height="30" as="geometry" />
        </mxCell>
        <mxCell id="l-ooRK0CQchim35NLO_1-10" value="&lt;span style=&quot;font-size: 23px;&quot;&gt;&lt;b&gt;算法层&lt;/b&gt;&lt;/span&gt;" style="text;html=1;align=center;verticalAlign=middle;whiteSpace=wrap;rounded=0;" parent="1" vertex="1">
          <mxGeometry x="200" y="571" width="80" height="30" as="geometry" />
        </mxCell>
        <mxCell id="l-ooRK0CQchim35NLO_1-11" value="" style="whiteSpace=wrap;html=1;strokeColor=none;strokeWidth=1;fillColor=#f5f5f5;fontSize=14;" parent="1" vertex="1">
          <mxGeometry x="184" y="320" width="806" height="120" as="geometry" />
        </mxCell>
        <mxCell id="l-ooRK0CQchim35NLO_1-12" value="&lt;span style=&quot;font-size: 23px;&quot;&gt;&lt;b&gt;功能层&lt;/b&gt;&lt;/span&gt;" style="text;html=1;align=center;verticalAlign=middle;whiteSpace=wrap;rounded=0;" parent="1" vertex="1">
          <mxGeometry x="200" y="366" width="80" height="30" as="geometry" />
        </mxCell>
        <mxCell id="l-ooRK0CQchim35NLO_1-15" value="" style="rounded=1;whiteSpace=wrap;html=1;fillColor=#d5e8d4;strokeColor=#82b366;" parent="1" vertex="1">
          <mxGeometry x="580" y="501" width="376" height="190" as="geometry" />
        </mxCell>
        <mxCell id="l-ooRK0CQchim35NLO_1-16" value="&lt;font style=&quot;font-size: 18px;&quot;&gt;&lt;b&gt;语音转文字模型&lt;/b&gt;&lt;/font&gt;" style="html=1;whiteSpace=wrap;fillColor=#d5e8d4;shape=mxgraph.archimate3.application;appType=collab;archiType=square;fontSize=14;strokeColor=#000000;" parent="1" vertex="1">
          <mxGeometry x="776" y="619.5" width="160" height="51" as="geometry" />
        </mxCell>
        <mxCell id="l-ooRK0CQchim35NLO_1-17" value="   加工特征识别功能" style="shape=component;align=center;fillColor=#99ffff;gradientColor=none;fontSize=18;fontStyle=1" parent="1" vertex="1">
          <mxGeometry x="320" y="340" width="240" height="80" as="geometry" />
        </mxCell>
        <mxCell id="l-ooRK0CQchim35NLO_1-19" value="工艺路径规划功能" style="shape=component;align=center;fillColor=#99ffff;gradientColor=none;fontSize=18;fontStyle=1" parent="1" vertex="1">
          <mxGeometry x="634" y="341" width="270" height="80" as="geometry" />
        </mxCell>
        <mxCell id="l-ooRK0CQchim35NLO_1-20" value="&lt;font style=&quot;font-size: 18px;&quot;&gt;&lt;b&gt;特征推理模型&lt;/b&gt;&lt;/font&gt;" style="html=1;whiteSpace=wrap;fillColor=#d5e8d4;shape=mxgraph.archimate3.application;appType=collab;archiType=square;fontSize=14;strokeColor=#000000;" parent="1" vertex="1">
          <mxGeometry x="600" y="621" width="160" height="49.5" as="geometry" />
        </mxCell>
        <mxCell id="l-ooRK0CQchim35NLO_1-21" value="" style="group" parent="1" vertex="1" connectable="0">
          <mxGeometry x="689" y="561" width="160" height="50" as="geometry" />
        </mxCell>
        <mxCell id="l-ooRK0CQchim35NLO_1-22" value="" style="html=1;whiteSpace=wrap;fillColor=#d5e8d4;shape=mxgraph.archimate3.application;appType=collab;archiType=square;fontSize=14;strokeColor=#000000;" parent="l-ooRK0CQchim35NLO_1-21" vertex="1">
          <mxGeometry width="160" height="50.00000000000001" as="geometry" />
        </mxCell>
        <mxCell id="l-ooRK0CQchim35NLO_1-23" value="&lt;font style=&quot;font-size: 18px;&quot;&gt;&lt;b style=&quot;&quot;&gt;大语言模型&lt;/b&gt;&lt;/font&gt;" style="text;html=1;align=center;verticalAlign=middle;whiteSpace=wrap;rounded=0;" parent="l-ooRK0CQchim35NLO_1-21" vertex="1">
          <mxGeometry x="20" y="15.066225165562914" width="119.99999999999999" height="19.867549668874172" as="geometry" />
        </mxCell>
        <mxCell id="l-ooRK0CQchim35NLO_1-24" value="&lt;b&gt;&lt;font style=&quot;font-size: 18px;&quot;&gt;模型部署模块&lt;/font&gt;&lt;/b&gt;" style="text;html=1;align=center;verticalAlign=middle;whiteSpace=wrap;rounded=0;" parent="1" vertex="1">
          <mxGeometry x="689" y="511" width="150" height="30" as="geometry" />
        </mxCell>
        <mxCell id="l-ooRK0CQchim35NLO_1-25" value="" style="rounded=1;whiteSpace=wrap;html=1;fillColor=#d5e8d4;strokeColor=#82b366;" parent="1" vertex="1">
          <mxGeometry x="304" y="501" width="256" height="190" as="geometry" />
        </mxCell>
        <mxCell id="l-ooRK0CQchim35NLO_1-26" value="&lt;span style=&quot;font-size: 18px;&quot;&gt;&lt;b&gt;传输模块&lt;/b&gt;&lt;/span&gt;" style="text;html=1;align=center;verticalAlign=middle;whiteSpace=wrap;rounded=0;" parent="1" vertex="1">
          <mxGeometry x="350" y="511" width="150" height="30" as="geometry" />
        </mxCell>
        <mxCell id="l-ooRK0CQchim35NLO_1-27" value="" style="group" parent="1" vertex="1" connectable="0">
          <mxGeometry x="350" y="551" width="160" height="50" as="geometry" />
        </mxCell>
        <mxCell id="l-ooRK0CQchim35NLO_1-28" value="" style="html=1;whiteSpace=wrap;fillColor=#d5e8d4;shape=mxgraph.archimate3.application;appType=collab;archiType=square;fontSize=14;strokeColor=#000000;" parent="l-ooRK0CQchim35NLO_1-27" vertex="1">
          <mxGeometry width="160" height="50.00000000000001" as="geometry" />
        </mxCell>
        <mxCell id="l-ooRK0CQchim35NLO_1-29" value="&lt;span style=&quot;font-size: 18px;&quot;&gt;&lt;b&gt;语音信息传输&lt;/b&gt;&lt;/span&gt;" style="text;html=1;align=center;verticalAlign=middle;whiteSpace=wrap;rounded=0;" parent="l-ooRK0CQchim35NLO_1-27" vertex="1">
          <mxGeometry x="20" y="15.066225165562914" width="119.99999999999999" height="19.867549668874172" as="geometry" />
        </mxCell>
        <mxCell id="l-ooRK0CQchim35NLO_1-30" value="" style="group" parent="1" vertex="1" connectable="0">
          <mxGeometry x="350" y="611" width="160" height="50" as="geometry" />
        </mxCell>
        <mxCell id="l-ooRK0CQchim35NLO_1-31" value="" style="html=1;whiteSpace=wrap;fillColor=#d5e8d4;shape=mxgraph.archimate3.application;appType=collab;archiType=square;fontSize=14;strokeColor=#000000;" parent="l-ooRK0CQchim35NLO_1-30" vertex="1">
          <mxGeometry width="160" height="50.00000000000001" as="geometry" />
        </mxCell>
        <mxCell id="l-ooRK0CQchim35NLO_1-32" value="&lt;span style=&quot;font-size: 18px;&quot;&gt;&lt;b&gt;特征信息传输&lt;/b&gt;&lt;/span&gt;" style="text;html=1;align=center;verticalAlign=middle;whiteSpace=wrap;rounded=0;" parent="l-ooRK0CQchim35NLO_1-30" vertex="1">
          <mxGeometry x="20" y="15.066225165562914" width="119.99999999999999" height="19.867549668874172" as="geometry" />
        </mxCell>
      </root>
    </mxGraphModel>
  </diagram>
</mxfile>
